<svg width="894" height="188" viewBox="0 0 894 188" fill="none" xmlns="http://www.w3.org/2000/svg">
<path d="M810.107 15.3248C810.107 15.3248 811.737 10.0569 818.447 5.18505C825.157 0.31324 843.204 1.87164 851.723 7.96443C860.242 14.0572 858.699 22.8441 861.521 24.8933C864.353 26.91 878.398 30.1162 884.756 41.3485C891.115 52.5807 885.515 59.5065 885.902 61.9422C886.288 64.3779 893.113 72.2624 890.459 86.4782C887.806 100.694 870.081 98.0951 865.656 95.5852C862.45 93.7381 863.307 88.5514 864.025 85.8873L864.538 84.2288C864.538 84.2288 864.304 84.8691 864.025 85.8873L857.182 108C857.182 108 849.237 113.06 828.814 106.169C808.391 99.2789 800.306 89.8282 800.306 89.8282L808.306 63.9762C808.306 63.9762 797.673 57.2293 795.606 50.7815C793.529 44.3664 793.78 30.5471 797.625 23.6485C801.578 16.7475 810.107 15.3248 810.107 15.3248Z" fill="white"/>
<path d="M864.538 84.2288L864.025 85.8873C864.304 84.8691 864.538 84.2288 864.538 84.2288Z" fill="white"/>
<path d="M810.107 15.3248C810.107 15.3248 811.737 10.0569 818.447 5.18506C825.157 0.313248 843.204 1.87165 851.723 7.96443C852.948 8.84235 853.947 9.75745 854.819 10.7399C851.514 10.2515 848.052 10.4987 844.81 11.4194C838.658 13.2214 833.376 17.3947 829.491 22.4638C826.611 26.2407 824.437 30.7344 824.432 35.472C824.427 40.2095 827.041 45.1165 831.471 46.808C833.247 42.3336 835.087 37.7717 838.468 34.3285C841.808 30.9078 847.104 28.8767 851.526 30.7083C851.458 35.5333 848.11 39.5572 845.964 43.8458C843.817 48.1344 843.229 54.295 847.259 56.9318C850.906 59.3077 855.642 57.2457 859.848 56.0888C866.261 54.3674 873.287 55.1521 879.146 58.2123C879.579 61.3038 876.196 63.7134 873.09 63.9636C869.984 64.2139 866.902 63.1177 863.769 63.1101C860.635 63.1025 857.054 64.7735 856.701 67.8712C856.508 69.4151 857.098 71.308 855.925 72.3347C854.996 73.1516 853.525 72.8389 852.364 72.4441C845.23 70.1651 838.064 67.876 830.92 65.6296C828.914 64.9731 826.725 64.3314 824.682 64.9462C822.959 65.4465 821.62 66.7782 820.455 68.1278C817.513 71.5291 815.209 75.5196 813.751 79.7718C813.477 80.5422 813.248 81.3977 813.512 82.1565C813.741 82.7975 814.268 83.2814 814.793 83.6576C817.77 85.8973 821.423 86.9919 824.917 88.2514C832.49 90.9516 839.72 94.6497 846.364 99.2003C847.064 99.702 847.797 100.214 848.243 100.958C848.847 102 848.768 103.294 848.513 104.462C848.082 106.431 847.141 108.206 845.914 109.751C841.635 109.531 836.016 108.576 828.879 106.189C808.456 99.299 800.37 89.8483 800.37 89.8483L808.371 63.9963C808.371 63.9963 797.738 57.2494 795.671 50.8017C793.594 44.3865 793.845 30.5672 797.69 23.6686C801.578 16.7475 810.107 15.3248 810.107 15.3248Z" fill="#A8A094"/>
<path d="M839.669 60.9613L840.804 61.6689C840.924 61.7417 841.067 61.857 841.187 61.9298C840.632 61.6511 840.129 61.3174 839.669 60.9613Z" fill="#0D0D0D"/>
<path d="M808.493 13.4002C809.44 11.377 811.837 7.20148 817.158 3.36102C823.265 -1.05629 835.807 -0.595472 844.522 2.10152C847.904 3.14811 850.765 4.49668 853.007 6.11704C859.044 10.4439 860.587 16.0524 861.614 19.7555C861.975 21.0074 862.433 22.7525 862.848 23.0235C863.318 23.3471 864.666 23.9424 866.121 24.5354C871.891 26.9623 881.517 30.9747 886.755 40.1855C891.961 49.3862 889.803 56.1299 888.666 59.8044C888.464 60.4548 888.213 61.2678 888.187 61.5805C888.302 61.9011 888.686 62.7326 889.023 63.3713C890.946 67.1735 894.907 75.0983 892.696 86.8497C891.848 91.4332 889.532 94.8857 885.845 97.1296C879.627 100.871 871.292 99.8239 867.325 98.5961C866.252 98.264 865.339 97.8746 864.609 97.4705C864.064 97.1593 863.581 96.7606 863.142 96.3394L859.338 108.631C859.187 109.119 858.873 109.557 858.427 109.846C858.077 110.058 849.98 115.036 830.436 108.987C829.689 108.756 828.908 108.514 828.17 108.25C807.389 101.249 799.064 91.6531 798.689 91.2521C798.192 90.6707 798.045 89.8771 798.267 89.1617L805.784 64.8705C802.614 62.6781 795.411 57.1705 793.585 51.439C791.287 44.2426 791.739 29.7729 795.792 22.5468C799.223 16.4108 805.741 14.1165 808.493 13.4002ZM796.795 46.0184C796.802 47.8379 797.023 49.082 797.702 50.1117C798.304 51.0462 799.288 51.7786 800.824 52.5744C803.949 54.2187 807.482 54.7775 810.996 54.9384C813.734 55.073 814.545 53.2574 814.034 50.5336C813.691 48.6461 812.686 46.9451 811.83 45.2194C808.769 39.1055 807.49 31.7255 810.023 25.3829C809.683 28.0927 809.538 30.8629 809.619 33.596C809.654 35.2102 809.796 36.8222 810.164 38.397C811.437 43.9574 815.471 48.3061 819.778 51.7768C820.775 52.5843 821.942 53.7649 823.127 54.3099C824.475 54.9052 826.21 54.9431 827.66 55.3208C829.924 55.9502 832.712 57.4187 834.491 55.0116C835.348 53.8517 835.564 52.3505 835.791 50.9243C836.626 45.6951 837.798 40.1786 841.363 36.2577C842.72 34.7533 844.373 33.5547 846.03 32.4638C841.221 37.639 838.082 44.3285 837.189 51.357C836.667 55.5782 837.392 59.2232 840.772 61.6588L839.637 60.9512C840.129 61.3174 840.631 61.6511 841.154 61.9197C841.209 61.9723 841.274 61.9925 841.362 62.0552C842.704 62.8983 843.831 63.746 845.029 64.3661L846.459 65.2719C849.362 67.061 852.378 68.6 855.848 69.2463C846.125 67.7339 837.47 62.3116 827.943 59.9337C824.804 59.1403 821.488 58.6844 818.326 59.345C810.32 61.0363 809.144 68.8677 807.101 75.4689C805.682 80.054 804.273 84.6066 802.854 89.1917C805.318 91.5932 813.545 98.629 829.543 104.043C830.281 104.307 830.997 104.529 831.712 104.75C831.842 104.79 831.94 104.82 832.07 104.861C835.621 105.247 840.408 105.552 842.158 104.847C845.093 103.653 842.018 98.8529 835.081 95.2453C828.145 91.6377 804.411 87.4999 804.411 87.4999C804.411 87.4999 828.762 88.8358 842.926 95.5709C850.901 99.3929 854.433 102.374 856.014 104.289C855.836 104.056 856.758 101.882 856.839 101.622C857.473 99.5737 857.93 98.7886 856.386 97.0993C855.382 95.969 854.357 94.9037 853.185 93.9708C851.268 92.4511 849.06 91.4114 846.862 90.3392C850.513 90.4002 854.147 91.6674 857.059 93.887C857.234 94.0124 857.432 94.1804 857.679 94.1858C857.82 94.1935 857.947 94.1262 858.075 94.0588C859.723 93.108 860.347 91.0918 860.881 89.3684C861.364 87.8075 862.061 86.7049 862.784 85.2896C864.501 82.0439 863.845 77.6007 862.311 74.3822C861.962 73.6684 861.538 72.967 860.893 72.518C861.858 72.8524 862.575 73.6444 863.237 74.3837C864.451 75.7572 865.56 77.2406 866.253 78.916C867.198 81.275 866.861 84.0924 866.126 86.4663C865.38 89.3356 865.12 92.7113 866.732 93.6023C866.972 93.7479 867.528 94.0266 868.568 94.3486C872.763 95.6468 879.25 95.8726 883.491 93.3367C886.031 91.8067 887.647 89.3492 888.275 86.0517C890.206 75.7814 886.809 69.0287 884.975 65.3969C884.311 64.0869 883.85 63.1602 883.691 62.2915C883.515 61.1325 883.868 59.9944 884.331 58.4985C885.42 55.0942 887.052 49.9338 882.787 42.4139C878.31 34.5433 869.542 30.8677 864.305 28.6768C862.414 27.8779 861.056 27.3151 860.149 26.678C858.454 25.4765 857.892 23.3783 857.248 20.9697C856.29 17.502 855.098 13.1779 850.351 9.7491C848.514 8.43222 846.023 7.26945 843.129 6.37381C834.381 3.66675 823.857 3.93749 819.67 6.98895C813.702 11.3064 812.155 15.9588 812.145 15.9913C811.894 16.8043 811.217 17.3788 810.391 17.5151C810.316 17.5275 802.861 18.8193 799.575 24.7152C796.011 31.1663 796.804 38.9659 796.795 46.0184Z" fill="#0D0D0D"/>
<path d="M849.872 62.7647C852.481 61.9331 854.672 60.1522 857.144 58.9575C862.163 56.5555 868.357 56.6907 873.228 59.374C865.344 61.2457 857.492 63.1275 849.608 64.9992C847.766 65.4267 846.38 65.069 845.019 64.3986L841.329 62.0451C843.952 63.3558 847.103 63.6537 849.872 62.7647Z" fill="#0D0D0D"/>
<path d="M841.187 61.9298C841.067 61.857 840.924 61.7416 840.804 61.6689L841.339 62.0126C841.274 61.9925 841.252 61.9499 841.187 61.9298Z" fill="#0D0D0D"/>
<path d="M826.209 6.12613C830.157 4.99633 834.488 5.62402 838.187 7.37437C838.654 7.59036 839.145 7.84893 839.434 8.29487C839.724 8.74082 839.78 9.36407 839.412 9.74888C835.917 8.95237 831.933 8.93089 829.029 11.061C827.873 11.915 826.993 13.0323 826.113 14.1495C825.117 15.4092 824.122 16.669 823.126 17.9287C822.549 18.641 822.005 19.3634 821.219 19.8326C820.464 20.3119 819.468 20.538 818.653 20.1788C817.902 19.8398 817.423 19.0857 817.202 18.3045C816.806 16.9349 817.011 15.4662 817.456 14.143C818.814 10.216 822.26 7.25594 826.209 6.12613Z" fill="#4D4D4D"/>
<path d="M870.392 84.0807C870.767 84.0187 871.147 84.172 871.495 84.3152C873.526 85.1218 877.093 86.2613 879.045 84.9056C879.225 84.7832 879.373 84.6508 879.531 84.4859C880.834 83.0365 880.951 80.4714 883.406 80.4829C883.687 80.4984 883.999 80.5239 884.222 80.3791C884.445 80.2343 884.568 79.9517 884.649 79.6916C884.898 78.771 884.826 72.4417 887.073 75.7739C887.707 76.7184 887.965 78.1879 888.096 79.2617C888.45 81.6874 888.105 84.182 887.066 86.3901C885.243 90.2087 881.329 92.9528 877.139 93.3665C874.711 93.6128 872.136 93.0655 870.387 91.3484C868.638 89.6312 868.09 86.6822 869.512 84.7349C869.753 84.4175 870.016 84.1426 870.392 84.0807Z" fill="#4D4D4D"/>
<g filter="url(#filter0_i_543_762)">
<path d="M135.557 159.086C131.917 167.846 126.014 174.849 117.847 180.097C109.679 185.302 100.581 187.904 90.5518 187.904C76.7985 187.904 65.0765 183.038 55.3857 173.305C45.7373 163.572 40.9131 151.786 40.9131 137.948C40.9131 124.068 45.7373 112.261 55.3857 102.528C65.0765 92.7952 76.7985 87.9287 90.5518 87.9287C100.666 87.9287 109.827 90.5947 118.037 95.9268C126.289 101.216 132.277 108.326 136.001 117.255H115.752C112.747 113.362 108.896 110.272 104.199 107.987C99.5443 105.66 94.7835 104.496 89.917 104.496C81.4535 104.496 74.1325 107.733 67.9541 114.208C61.818 120.64 58.75 128.321 58.75 137.25C58.75 146.771 61.8815 154.833 68.1445 161.435C74.4499 168.036 82.1305 171.337 91.1865 171.337C95.6722 171.337 100.094 170.237 104.453 168.036C108.812 165.793 112.43 162.81 115.308 159.086H135.557ZM185.995 187.904C172.073 187.904 160.202 183.038 150.385 173.305C140.609 163.572 135.722 151.786 135.722 137.948C135.722 124.068 140.609 112.261 150.385 102.528C160.202 92.7952 172.073 87.9287 185.995 87.9287C199.96 87.9287 211.83 92.7952 221.605 102.528C231.381 112.261 236.269 124.068 236.269 137.948C236.269 151.786 231.381 163.572 221.605 173.305C211.83 183.038 199.96 187.904 185.995 187.904ZM185.995 171.337C195.051 171.337 202.711 168.1 208.974 161.625C215.279 155.15 218.432 147.258 218.432 137.948C218.432 128.596 215.279 120.683 208.974 114.208C202.711 107.733 195.051 104.496 185.995 104.496C176.939 104.496 169.258 107.733 162.953 114.208C156.69 120.683 153.559 128.596 153.559 137.948C153.559 147.258 156.69 155.15 162.953 161.625C169.258 168.1 176.939 171.337 185.995 171.337ZM288.675 187.904C274.752 187.904 262.882 183.038 253.064 173.305C243.289 163.572 238.401 151.786 238.401 137.948C238.401 124.068 243.289 112.261 253.064 102.528C262.882 92.7952 274.752 87.9287 288.675 87.9287C302.64 87.9287 314.51 92.7952 324.285 102.528C334.061 112.261 338.948 124.068 338.948 137.948C338.948 151.786 334.061 163.572 324.285 173.305C314.51 183.038 302.64 187.904 288.675 187.904ZM288.675 171.337C297.731 171.337 305.39 168.1 311.653 161.625C317.959 155.15 321.111 147.258 321.111 137.948C321.111 128.596 317.959 120.683 311.653 114.208C305.39 107.733 297.731 104.496 288.675 104.496C279.619 104.496 271.938 107.733 265.633 114.208C259.37 120.683 256.238 128.596 256.238 137.948C256.238 147.258 259.37 155.15 265.633 161.625C271.938 168.1 279.619 171.337 288.675 171.337ZM366.091 186H357.204H348.317V89.833H357.204H366.091V132.299L396.56 89.833H406.97H417.38L380.881 137.123L417.38 186H406.97H396.496L366.091 143.598V186ZM739.244 132.616C741.106 133.716 742.905 135.028 744.64 136.552C750.776 142.011 753.844 148.803 753.844 156.928C753.844 165.73 750.755 173.093 744.576 179.018C738.44 184.942 730.823 187.904 721.725 187.904C712.626 187.904 705.009 184.942 698.873 179.018C692.737 173.093 689.669 165.73 689.669 156.928C689.669 148.803 692.737 141.99 698.873 136.488C700.523 135.007 702.301 133.716 704.205 132.616L702.745 131.347C697.667 126.734 695.128 121 695.128 114.145C695.128 106.697 697.667 100.476 702.745 95.4824C707.866 90.4466 714.192 87.9287 721.725 87.9287C729.299 87.9287 735.626 90.4466 740.704 95.4824C745.825 100.476 748.385 106.697 748.385 114.145C748.385 121 745.825 126.734 740.704 131.347L739.244 132.616ZM721.725 125.062C724.687 125.062 727.141 124.068 729.088 122.079C731.077 120.09 732.071 117.593 732.071 114.589C732.071 111.584 731.077 109.088 729.088 107.099C727.141 105.067 724.687 104.052 721.725 104.052C718.805 104.052 716.35 105.067 714.361 107.099C712.415 109.088 711.441 111.584 711.441 114.589C711.441 117.593 712.436 120.09 714.425 122.079C716.371 124.068 718.805 125.062 721.725 125.062ZM721.725 141.82C717.577 141.82 714.129 143.259 711.378 146.137C708.627 148.972 707.252 152.548 707.252 156.864C707.252 161.138 708.627 164.693 711.378 167.528C714.129 170.364 717.577 171.781 721.725 171.781C725.872 171.781 729.321 170.364 732.071 167.528C734.864 164.693 736.261 161.138 736.261 156.864C736.261 152.548 734.864 148.951 732.071 146.073C729.321 143.238 725.872 141.82 721.725 141.82ZM761.245 168.734H778.638V186H761.245V168.734ZM818.158 187.904C808.764 187.904 801.02 184.857 794.926 178.764C788.874 172.67 785.849 164.905 785.849 155.468V120.492C785.849 111.013 788.896 103.227 794.989 97.1328C801.083 90.9967 808.806 87.9287 818.158 87.9287C827.553 87.9287 835.276 90.9967 841.327 97.1328C847.421 103.227 850.468 111.013 850.468 120.492V155.468C850.468 164.905 847.421 172.67 841.327 178.764C835.276 184.857 827.553 187.904 818.158 187.904ZM818.158 171.781C822.771 171.781 826.368 170.342 828.949 167.465C831.573 164.545 832.885 160.525 832.885 155.404V120.429C832.885 115.308 831.573 111.309 828.949 108.432C826.368 105.512 822.771 104.052 818.158 104.052C813.546 104.052 809.927 105.512 807.304 108.432C804.722 111.309 803.432 115.308 803.432 120.429V155.404C803.432 160.525 804.722 164.545 807.304 167.465C809.927 170.342 813.546 171.781 818.158 171.781Z" fill="#B7AB98"/>
<path d="M495.405 187.904C481.483 187.904 469.613 183.038 459.795 173.305C450.02 163.572 445.132 151.786 445.132 137.948C445.132 124.068 450.02 112.261 459.795 102.528C469.613 92.7952 481.483 87.9287 495.405 87.9287C509.37 87.9287 521.24 92.7952 531.016 102.528C540.791 112.261 545.679 124.068 545.679 137.948C545.679 151.786 540.791 163.572 531.016 173.305C521.24 183.038 509.37 187.904 495.405 187.904ZM495.405 171.337C504.461 171.337 512.121 168.1 518.384 161.625C524.689 155.15 527.842 147.258 527.842 137.948C527.842 128.596 524.689 120.683 518.384 114.208C512.121 107.733 504.461 104.496 495.405 104.496C486.349 104.496 478.669 107.733 472.363 114.208C466.1 120.683 462.969 128.596 462.969 137.948C462.969 147.258 466.1 155.15 472.363 161.625C478.669 168.1 486.349 171.337 495.405 171.337ZM551.43 186V89.833H600.434V98.085V106.4H569.203V130.077H598.91V138.329V146.645H569.203V186H560.316H551.43ZM607.391 186V89.833H656.395V98.085V106.4H625.164V130.077H654.871V138.329V146.645H625.164V186H616.277H607.391Z" fill="#EB5939"/>
</g>
<defs>
<filter id="filter0_i_543_762" x="40.9131" y="87.9287" width="809.555" height="103.976" filterUnits="userSpaceOnUse" color-interpolation-filters="sRGB">
<feFlood flood-opacity="0" result="BackgroundImageFix"/>
<feBlend mode="normal" in="SourceGraphic" in2="BackgroundImageFix" result="shape"/>
<feColorMatrix in="SourceAlpha" type="matrix" values="0 0 0 0 0 0 0 0 0 0 0 0 0 0 0 0 0 0 127 0" result="hardAlpha"/>
<feOffset dy="4"/>
<feGaussianBlur stdDeviation="2"/>
<feComposite in2="hardAlpha" operator="arithmetic" k2="-1" k3="1"/>
<feColorMatrix type="matrix" values="0 0 0 0 0 0 0 0 0 0 0 0 0 0 0 0 0 0 0.25 0"/>
<feBlend mode="normal" in2="shape" result="effect1_innerShadow_543_762"/>
</filter>
</defs>
</svg>
